<?xml version="1.0" encoding="UTF-8" standalone="no"?>
<svg width="25px" height="25px" viewBox="0 0 25 25" version="1.1" xmlns="http://www.w3.org/2000/svg" xmlns:xlink="http://www.w3.org/1999/xlink" xmlns:sketch="http://www.bohemiancoding.com/sketch/ns">
    <!-- Generator: Sketch 3.2.1 (9977) - http://www.bohemiancoding.com/sketch -->
    <title>icon</title>
    <desc>Created with Sketch.</desc>
    <defs></defs>
    <g id="WebApp" stroke="none" stroke-width="1" fill="none" fill-rule="evenodd" sketch:type="MSPage">
        <g id="Minimal---Header" sketch:type="MSArtboardGroup" transform="translate(-541.000000, -15.000000)" fill="#FFFFFF" opacity="0.5">
            <g id="header" sketch:type="MSLayerGroup">
                <g id="menu" transform="translate(310.000000, 0.000000)" sketch:type="MSShapeGroup">
                    <g id="Accounting" transform="translate(195.000000, 0.000000)">
                        <path d="M48.5,14.999 C41.596,14.999 36,20.595 36,27.498 C36,34.401 41.596,39.998 48.5,39.998 C55.403,39.998 61,34.401 61,27.498 C61,20.595 55.403,14.999 48.5,14.999 Z M48.5,15.998 C42.148,15.998 37,21.146 37,27.498 C37,33.849 42.148,38.998 48.5,38.998 C54.851,38.998 60,33.849 60,27.498 C60,21.146 54.851,15.998 48.5,15.998 Z M48.2129136,35.008 L49.0735971,35.008 L49.0735971,33.367904 C52.0296617,33.1834199 53.003,31.4132253 53.003,29.9021616 C53.003,27.5422575 51.0011224,26.8427107 49.0735971,26.3073868 L49.0735971,21.6622255 C50.2159178,21.7912578 51.244457,22.2700634 52.0116369,23.1732893 L52.7224893,22.4001621 C51.8618059,21.440418 50.6451329,20.8144516 49.0735971,20.684353 L49.0735971,19.008 L48.2129136,19.008 L48.2129136,20.684353 C46.0803564,20.7771282 44.3961656,22.0311938 44.3961656,23.9474828 C44.3961656,26.1229027 46.3045396,26.7126121 48.2129136,27.2468696 L48.2129136,32.4092263 C46.623353,32.2983226 45.4438562,31.4868057 44.6958276,30.6390317 L44.003,31.4313538 C44.9008596,32.5009352 46.323691,33.2751288 48.2129136,33.367904 L48.2129136,35.008 Z M51.8809572,29.9757419 C51.8809572,30.9706766 51.2264322,32.2428707 49.0735971,32.4092263 L49.0735971,27.4868057 C50.589932,27.9293543 51.8809572,28.4817403 51.8809572,29.9757419 L51.8809572,29.9757419 Z M45.519335,23.8920309 C45.519335,22.6390317 46.6605291,21.7176774 48.2129136,21.644097 L48.2129136,26.0674508 C46.7540327,25.6622255 45.519335,25.1834199 45.519335,23.8920309 L45.519335,23.8920309 Z" id="icon"></path>
                    </g>
                </g>
            </g>
        </g>
    </g>
</svg>