<?xml version="1.0" encoding="UTF-8" standalone="no"?>
<svg width="11px" height="17px" viewBox="0 0 11 17" version="1.1" xmlns="http://www.w3.org/2000/svg" xmlns:xlink="http://www.w3.org/1999/xlink" xmlns:sketch="http://www.bohemiancoding.com/sketch/ns">
<!-- Generator: Sketch 3.2.2 (9983) - http://www.bohemiancoding.com/sketch -->
<title>arrows 2</title>
<desc>Created with Sketch.</desc>
<defs></defs>
<g id="WebApp" stroke="none" stroke-width="1" fill="none" fill-rule="evenodd" sketch:type="MSPage">
<g id="Users" sketch:type="MSArtboardGroup" transform="translate(-1899.000000, -766.000000)" fill="#4A585D">
<g id="order-details" sketch:type="MSLayerGroup" transform="translate(1198.000000, 80.000000)">
<g id="details" transform="translate(0.000000, 363.000000)" sketch:type="MSShapeGroup">
<g id="field-11" transform="translate(540.000000, 298.000000)">
<g id="arrows-2" transform="translate(160.000000, 25.000000)">
<g id="up" transform="translate(6.500000, 5.500000) rotate(-45.000000) translate(-6.500000, -5.500000) translate(3.000000, 2.000000)">
<rect id="line" x="-1.09690035e-13" y="-1.09690035e-13" width="7" height="1" rx="1"></rect>
<rect id="line" transform="translate(6.500000, 3.500000) rotate(-90.000000) translate(-6.500000, -3.500000) " x="3" y="3" width="7" height="1" rx="1"></rect>
</g>
<g id="down" transform="translate(6.146447, 11.853553) rotate(-225.000000) translate(-6.146447, -11.853553) translate(2.146447, 8.353553)">
<rect id="line" x="-3.19744231e-14" y="1.38555833e-13" width="7" height="1" rx="1"></rect>
<rect id="line" transform="translate(6.500000, 3.500000) rotate(-90.000000) translate(-6.500000, -3.500000) " x="3" y="3" width="7" height="1" rx="1"></rect>
</g>
</g>
</g>
</g>
</g>
</g>
</g>
</svg>