<?xml version="1.0" encoding="UTF-8" standalone="no"?>
<svg width="13px" height="8px" viewBox="0 0 13 8" version="1.1" xmlns="http://www.w3.org/2000/svg" xmlns:xlink="http://www.w3.org/1999/xlink" xmlns:sketch="http://www.bohemiancoding.com/sketch/ns">
    <!-- Generator: Sketch 3.2.2 (9983) - http://www.bohemiancoding.com/sketch -->
    <title>arrows</title>
    <desc>Created with Sketch.</desc>
    <defs></defs>
    <g id="WebApp" stroke="none" stroke-width="1" fill="none" fill-rule="evenodd" sketch:type="MSPage">
        <g id="Appraisals---Advanced" sketch:type="MSArtboardGroup" transform="translate(-720.000000, -244.000000)" fill-opacity="0.25" fill="#000000">
            <g id="appraisals" sketch:type="MSLayerGroup" transform="translate(0.000000, 80.000000)">
                <g id="table" transform="translate(0.000000, 106.000000)" sketch:type="MSShapeGroup">
                    <g id="sort">
                        <g id="field-06" transform="translate(660.000000, 0.000000)">
                            <path d="M69.8944445,65.8039853 C69.801567,65.9231669 69.6569789,66 69.5,66 C69.3713141,66 69.2539828,65.9498783 69.1653698,65.8690614 L69.1653698,65.8690614 C69.0985053,65.8457102 69.035611,65.8071595 68.9816064,65.7531549 L66.8468207,63.6183691 C66.6552769,63.4268254 66.6640018,63.1075466 66.8535534,62.9179951 C67.0488155,62.7227329 67.3591753,62.7165102 67.5539275,62.9112624 L69,64.3573349 L69,58.5004358 C69,58.2240528 69.2319336,58 69.5,58 C69.7761424,58 70,58.2307968 70,58.5004358 L70,64.2928627 L71.3816003,62.9112624 C71.5763525,62.7165102 71.8867123,62.7227329 72.0819744,62.9179951 C72.271526,63.1075466 72.2802509,63.4268254 72.0887071,63.6183691 L69.9539214,65.7531549 C69.9351055,65.7719707 69.9152106,65.7889106 69.8944445,65.8039853 Z M63.8944445,58.1960147 C63.801567,58.0768331 63.6569789,58 63.5,58 C63.3713141,58 63.2539828,58.0501217 63.1653698,58.1309386 L63.1653698,58.1309386 C63.0985053,58.1542898 63.035611,58.1928405 62.9816064,58.2468451 L60.8468207,60.3816309 C60.6552769,60.5731746 60.6640018,60.8924534 60.8535534,61.0820049 C61.0488155,61.2772671 61.3591753,61.2834898 61.5539275,61.0887376 L63,59.6426651 L63,65.4995642 C63,65.7759472 63.2319336,66 63.5,66 C63.7761424,66 64,65.7692032 64,65.4995642 L64,59.7071373 L65.3816003,61.0887376 C65.5763525,61.2834898 65.8867123,61.2772671 66.0819744,61.0820049 C66.271526,60.8924534 66.2802509,60.5731746 66.0887071,60.3816309 L63.9539214,58.2468451 C63.9351055,58.2280293 63.9152106,58.2110894 63.8944445,58.1960147 L63.8944445,58.1960147 Z" id="arrows"></path>
                        </g>
                    </g>
                </g>
            </g>
        </g>
    </g>
</svg>