<?xml version="1.0" encoding="UTF-8" standalone="no"?>
<svg width="10px" height="17px" viewBox="0 0 10 17" version="1.1" xmlns="http://www.w3.org/2000/svg" xmlns:xlink="http://www.w3.org/1999/xlink" xmlns:sketch="http://www.bohemiancoding.com/sketch/ns">
    <!-- Generator: Sketch 3.2.1 (9977) - http://www.bohemiancoding.com/sketch -->
    <title>icon</title>
    <desc>Created with Sketch.</desc>
    <defs></defs>
    <g id="WebApp" stroke="none" stroke-width="1" fill="none" fill-rule="evenodd" sketch:type="MSPage">
        <g id="Appraisals---Advanced" sketch:type="MSArtboardGroup" transform="translate(-1888.000000, -151.000000)" fill="#000000" opacity="0.35">
            <g id="appraisals" sketch:type="MSLayerGroup" transform="translate(0.000000, 80.000000)">
                <g id="btn:-configure" transform="translate(1876.000000, 62.000000)" sketch:type="MSShapeGroup">
                    <path d="M16.9501642,22.999 L21.545,22.999 C21.797,22.999 22,23.223 22,23.498 C22,23.775 21.797,23.999 21.545,23.999 L16.9498162,23.999 C16.7178776,25.1398015 15.7094071,25.998 14.5,25.998 C13.119,25.998 12,24.879 12,23.498 C12,22.118 13.119,20.998 14.5,20.998 C15.710013,20.998 16.718888,21.8578263 16.9501642,22.999 L16.9501642,22.999 Z M17.0497781,16.999 L12.455,16.999 C12.203,16.999 12,17.223 12,17.498 C12,17.774 12.203,17.999 12.455,17.999 L17.0501838,17.999 C17.2821224,19.1398015 18.2905929,19.998 19.5,19.998 C20.881,19.998 22,18.879 22,17.498 C22,16.117 20.881,14.998 19.5,14.998 C18.2898863,14.998 17.280944,15.8572016 17.0497781,16.999 L17.0497781,16.999 Z M16.9502219,10.999 L21.545,10.999 C21.797,10.999 22,11.223 22,11.499 C22,11.774 21.797,11.999 21.545,11.999 L16.9498162,11.999 C16.7178776,13.1398015 15.7094071,13.998 14.5,13.998 C13.119626,13.998 12.0010146,12.8800143 12.0000007,11.499878 C12.0000002,11.4995854 12,11.4992927 12,11.499 C12,11.4988333 12.0000001,11.4986666 12.0000002,11.4984999 C12,11.4983333 12,11.4981667 12,11.498 C12,10.117 13.119,8.998 14.5,8.998 C15.7101137,8.998 16.719056,9.85720164 16.9502219,10.999 L16.9502219,10.999 Z M14.5,9.998 C13.672,9.998 13,10.67 13,11.498 C13,12.327 13.672,12.998 14.5,12.998 C15.328,12.998 16,12.327 16,11.498 C16,10.67 15.328,9.998 14.5,9.998 Z M19.5,15.998 C18.672,15.998 18,16.67 18,17.498 C18,18.327 18.672,18.998 19.5,18.998 C20.328,18.998 21,18.327 21,17.498 C21,16.67 20.328,15.998 19.5,15.998 Z M14.5,21.998 C13.672,21.998 13,22.67 13,23.498 C13,24.327 13.672,24.998 14.5,24.998 C15.328,24.998 16,24.327 16,23.498 C16,22.67 15.328,21.998 14.5,21.998 Z" id="icon"></path>
                </g>
            </g>
        </g>
    </g>
</svg>

<?xml version="1.0" encoding="UTF-8" standalone="no"?>
<svg width="10px" height="17px" viewBox="0 0 10 17" version="1.1" xmlns="http://www.w3.org/2000/svg" xmlns:xlink="http://www.w3.org/1999/xlink" xmlns:sketch="http://www.bohemiancoding.com/sketch/ns">
    <!-- Generator: Sketch 3.2.1 (9977) - http://www.bohemiancoding.com/sketch -->
    <title>icon</title>
    <desc>Created with Sketch.</desc>
    <defs></defs>
    <g id="WebApp" stroke="none" stroke-width="1" fill="red" fill-rule="evenodd" sketch:type="MSPage">
        <g id="Appraisals---Advanced" sketch:type="MSArtboardGroup" transform="translate(-1888.000000, -151.000000)" fill="#000000" opacity="0.35">
            <g id="appraisals" sketch:type="MSLayerGroup" transform="translate(0.000000, 80.000000)">
                <g id="btn:-configure" transform="translate(1876.000000, 62.000000)" sketch:type="MSShapeGroup">
                    <path d="M16.9501642,22.999 L21.545,22.999 C21.797,22.999 22,23.223 22,23.498 C22,23.775 21.797,23.999 21.545,23.999 L16.9498162,23.999 C16.7178776,25.1398015 15.7094071,25.998 14.5,25.998 C13.119,25.998 12,24.879 12,23.498 C12,22.118 13.119,20.998 14.5,20.998 C15.710013,20.998 16.718888,21.8578263 16.9501642,22.999 L16.9501642,22.999 Z M17.0497781,16.999 L12.455,16.999 C12.203,16.999 12,17.223 12,17.498 C12,17.774 12.203,17.999 12.455,17.999 L17.0501838,17.999 C17.2821224,19.1398015 18.2905929,19.998 19.5,19.998 C20.881,19.998 22,18.879 22,17.498 C22,16.117 20.881,14.998 19.5,14.998 C18.2898863,14.998 17.280944,15.8572016 17.0497781,16.999 L17.0497781,16.999 Z M16.9502219,10.999 L21.545,10.999 C21.797,10.999 22,11.223 22,11.499 C22,11.774 21.797,11.999 21.545,11.999 L16.9498162,11.999 C16.7178776,13.1398015 15.7094071,13.998 14.5,13.998 C13.119626,13.998 12.0010146,12.8800143 12.0000007,11.499878 C12.0000002,11.4995854 12,11.4992927 12,11.499 C12,11.4988333 12.0000001,11.4986666 12.0000002,11.4984999 C12,11.4983333 12,11.4981667 12,11.498 C12,10.117 13.119,8.998 14.5,8.998 C15.7101137,8.998 16.719056,9.85720164 16.9502219,10.999 L16.9502219,10.999 Z M14.5,9.998 C13.672,9.998 13,10.67 13,11.498 C13,12.327 13.672,12.998 14.5,12.998 C15.328,12.998 16,12.327 16,11.498 C16,10.67 15.328,9.998 14.5,9.998 Z M19.5,15.998 C18.672,15.998 18,16.67 18,17.498 C18,18.327 18.672,18.998 19.5,18.998 C20.328,18.998 21,18.327 21,17.498 C21,16.67 20.328,15.998 19.5,15.998 Z M14.5,21.998 C13.672,21.998 13,22.67 13,23.498 C13,24.327 13.672,24.998 14.5,24.998 C15.328,24.998 16,24.327 16,23.498 C16,22.67 15.328,21.998 14.5,21.998 Z" id="icon"></path>
                </g>
            </g>
        </g>
    </g>
</svg>