<?xml version="1.0" encoding="UTF-8" standalone="no"?>
<svg width="16px" height="16px" viewBox="0 0 16 16" version="1.1" xmlns="http://www.w3.org/2000/svg" xmlns:xlink="http://www.w3.org/1999/xlink" xmlns:sketch="http://www.bohemiancoding.com/sketch/ns">
    <!-- Generator: Sketch 3.2.1 (9977) - http://www.bohemiancoding.com/sketch -->
    <title>icon: search</title>
    <desc>Created with Sketch.</desc>
    <defs></defs>
    <g id="WebApp" stroke="none" stroke-width="1" fill="none" fill-rule="evenodd" sketch:type="MSPage">
        <g id="Appraisals---Advanced" sketch:type="MSArtboardGroup" transform="translate(-19.000000, -151.000000)" fill="#000000" opacity="0.35">
            <g id="appraisals" sketch:type="MSLayerGroup" transform="translate(0.000000, 80.000000)">
                <g id="search" transform="translate(19.000000, 70.000000)" sketch:type="MSShapeGroup">
                    <path d="M10.7474903,12.4194903 C9.60831026,13.403723 8.12370639,13.999 6.5,13.999 C2.91,13.999 0,11.089 0,7.499 C0,3.908 2.91,0.999 6.5,0.999 C10.09,0.999 13,3.908 13,7.499 C13,9.12273691 12.4047006,10.6073661 11.4204348,11.7465546 L15.857,16.184 C16.043,16.369 16.043,16.67 15.857,16.856 C15.671,17.042 15.37,17.042 15.184,16.856 L10.7474903,12.4194903 L10.7474903,12.4194903 Z M6.5,1.999 C3.462,1.999 1,4.461 1,7.499 C1,10.537 3.462,12.999 6.5,12.999 C9.538,12.999 12,10.537 12,7.499 C12,4.461 9.538,1.999 6.5,1.999 Z" id="icon:-search"></path>
                </g>
            </g>
        </g>
    </g>
</svg>