<?xml version="1.0" encoding="UTF-8" standalone="no"?>
<svg width="16px" height="15px" viewBox="0 0 16 15" version="1.1" xmlns="http://www.w3.org/2000/svg" xmlns:xlink="http://www.w3.org/1999/xlink" xmlns:sketch="http://www.bohemiancoding.com/sketch/ns">
    <!-- Generator: Sketch 3.2.1 (9977) - http://www.bohemiancoding.com/sketch -->
    <title>icon</title>
    <desc>Created with Sketch.</desc>
    <defs></defs>
    <g id="WebApp" stroke="none" stroke-width="1" fill="none" fill-rule="evenodd" sketch:type="MSPage">
        <g id="Appraisals---Advanced" sketch:type="MSArtboardGroup" transform="translate(-1767.000000, -152.000000)" fill="#000000" opacity="0.35">
            <g id="appraisals" sketch:type="MSLayerGroup" transform="translate(0.000000, 80.000000)">
                <g id="btn:-export" transform="translate(1758.000000, 62.000000)" sketch:type="MSShapeGroup">
                    <path d="M17,23.2212269 L17,16.191 C17,15.907 17.224,15.676 17.5,15.676 C17.776,15.676 18,15.907 18,16.191 L18,23.2212269 L20.167,20.984 C20.357,20.788 20.666,20.788 20.857,20.984 C21.048,21.182 21.048,21.501 20.857,21.697 L17.9363121,24.711374 C17.9151352,24.7495571 17.8886978,24.7854724 17.857,24.818 C17.765497,24.9128566 17.6469116,24.9622698 17.5273027,24.9662399 C17.5182633,24.9667444 17.5091603,24.967 17.5,24.967 C17.4910233,24.967 17.4821017,24.9667546 17.4732409,24.9662699 C17.3532059,24.9625264 17.2342606,24.9131031 17.143,24.818 C17.1113022,24.7854724 17.0848648,24.7495571 17.0636879,24.711374 L14.143,21.697 C13.952,21.501 13.952,21.182 14.143,20.984 C14.333,20.788 14.643,20.788 14.833,20.984 L17,23.2212269 Z M22,21.4227474 C23.1894317,20.7740268 24,19.4845154 24,17.999 C24,15.935655 22.436208,14.2495202 20.4654579,14.1342825 C20.2255802,12.3798124 18.7654386,11.031 17,11.031 C15.067,11.031 13.5,12.648 13.5,14.644 L13.5,14.644 C11.567,14.644 10,16.262 10,18.257 C10,20.0767943 11.3038505,21.5820669 13,21.8324246 L13,22.8736403 C10.7502433,22.6168391 9,20.6475568 9,18.257 C9,16.0122383 10.5420634,14.1394086 12.591836,13.7056696 L12.591836,13.7056696 C13.012247,11.5897229 14.8263159,9.999 17,9.999 C19.0010604,9.999 20.6973556,11.3471 21.2821523,13.2120255 C23.4096055,13.6984081 25,15.6568244 25,17.999 C25,20.0691621 23.7575623,21.8395261 22,22.5586544 L22,21.4227474 L22,21.4227474 Z" id="icon"></path>
                </g>
            </g>
        </g>
    </g>
</svg>