<?xml version="1.0" encoding="UTF-8" standalone="no"?>
<svg width="15px" height="15px" viewBox="0 0 15 15" version="1.1" xmlns="http://www.w3.org/2000/svg" xmlns:xlink="http://www.w3.org/1999/xlink" xmlns:sketch="http://www.bohemiancoding.com/sketch/ns">
    <!-- Generator: Sketch 3.2.1 (9977) - http://www.bohemiancoding.com/sketch -->
    <title>icon: plus</title>
    <desc>Created with Sketch.</desc>
    <defs></defs>
    <g id="WebApp" stroke="none" stroke-width="1" fill="none" fill-rule="evenodd" sketch:type="MSPage">
        <g id="Appraisals---Advanced" sketch:type="MSArtboardGroup" transform="translate(-1598.000000, -152.000000)" fill="#17A1E5">
            <g id="appraisals" sketch:type="MSLayerGroup" transform="translate(0.000000, 80.000000)">
                <g id="btn:-new" transform="translate(1589.000000, 62.000000)" sketch:type="MSShapeGroup">
                    <path d="M16.012,17.01 L16.012,14.522 C16.012,14.234 16.23,14.001 16.5,14.001 C16.77,14.001 16.988,14.234 16.988,14.522 L16.988,17.01 L19.477,17.01 C19.765,17.01 19.998,17.229 19.998,17.498 C19.998,17.769 19.765,17.987 19.477,17.987 L16.988,17.987 L16.988,20.476 C16.988,20.764 16.77,20.997 16.5,20.997 C16.23,20.997 16.012,20.764 16.012,20.476 L16.012,17.987 L13.523,17.987 C13.235,17.987 13.002,17.769 13.002,17.498 C13.002,17.229 13.235,17.01 13.523,17.01 L16.012,17.01 Z M16.5,9.999 C12.358,9.999 9,13.356 9,17.498 C9,21.641 12.358,24.999 16.5,24.999 C20.642,24.999 24,21.641 24,17.498 C24,13.356 20.642,9.999 16.5,9.999 Z M16.5,10.999 C12.91,10.999 10,13.909 10,17.498 C10,21.089 12.91,23.999 16.5,23.999 C20.09,23.999 23,21.089 23,17.498 C23,13.909 20.09,10.999 16.5,10.999 Z" id="icon:-plus"></path>
                </g>
            </g>
        </g>
    </g>
</svg>