<?xml version="1.0" encoding="UTF-8" standalone="no"?>
<svg width="25px" height="25px" viewBox="0 0 25 25" version="1.1" xmlns="http://www.w3.org/2000/svg" xmlns:xlink="http://www.w3.org/1999/xlink" xmlns:sketch="http://www.bohemiancoding.com/sketch/ns">
    <!-- Generator: Sketch 3.2.1 (9977) - http://www.bohemiancoding.com/sketch -->
    <title>icon</title>
    <desc>Created with Sketch.</desc>
    <defs></defs>
    <g id="WebApp" stroke="none" stroke-width="1" fill="none" fill-rule="evenodd" sketch:type="MSPage">
        <g id="Minimal---Header" sketch:type="MSArtboardGroup" transform="translate(-347.000000, -15.000000)" fill="#FFFFFF">
            <g id="header" sketch:type="MSLayerGroup">
                <g id="menu" transform="translate(310.000000, 0.000000)" sketch:type="MSShapeGroup">
                    <g id="Dashboard" transform="translate(1.000000, 0.000000)">
                        <path d="M49.8218655,31.3755037 C50.5293716,31.8169769 51,32.6023925 51,33.498 C51,34.878 49.881,35.998 48.5,35.998 C47.119,35.998 46,34.878 46,33.498 C46,32.117 47.119,30.998 48.5,30.998 C48.6307246,30.998 48.7591017,31.0080267 48.8844041,31.0273532 L50.9038653,25.4789292 C51.002091,25.2090564 51.2885386,25.0765638 51.5480276,25.1710101 C51.7999276,25.2626942 51.93983,25.5564441 51.8435579,25.8209494 L49.8218655,31.3755037 L49.8218655,31.3755037 Z M37.0106704,26.998 C37.2723852,20.8780332 42.3155283,15.998 48.5,15.998 C54.6844717,15.998 59.7276148,20.8780332 59.9893296,26.998 L60,26.998 L59.9900284,27.0146193 C59.9966544,27.1749201 60,27.3360688 60,27.498 C60,33.85 54.852,38.998 48.5,38.998 C42.148,38.998 37,33.85 37,27.498 C37,27.3360688 37.0033456,27.1749201 37.0099716,27.0146193 L37,26.998 L37.0106704,26.998 Z M40.0144658,26.998 C40.2733229,22.5366789 43.9738465,18.998 48.5,18.998 C53.0261535,18.998 56.7266771,22.5366789 56.9855342,26.998 L55.9835961,26.998 C55.7262857,23.0891009 52.4739861,19.998 48.5,19.998 C44.5250545,19.998 41.2736365,23.0891009 41.0163992,26.998 L40.0144658,26.998 L40.0144658,26.998 Z M48.5,14.998 C41.597,14.998 36,20.595 36,27.498 C36,34.402 41.597,39.998 48.5,39.998 C55.403,39.998 61,34.402 61,27.498 C61,20.595 55.403,14.998 48.5,14.998 Z M48.5,32 C47.672,32 47,32.671 47,33.5 C47,34.328 47.672,35 48.5,35 C49.328,35 50,34.328 50,33.5 C50,32.671 49.328,32 48.5,32 Z" id="icon"></path>
                    </g>
                </g>
            </g>
        </g>
    </g>
</svg>