<?xml version="1.0" encoding="UTF-8" standalone="no"?>
<svg width="25px" height="25px" viewBox="0 0 25 25" version="1.1" xmlns="http://www.w3.org/2000/svg" xmlns:xlink="http://www.w3.org/1999/xlink" xmlns:sketch="http://www.bohemiancoding.com/sketch/ns">
    <!-- Generator: Sketch 3.2.1 (9977) - http://www.bohemiancoding.com/sketch -->
    <title>icon</title>
    <desc>Created with Sketch.</desc>
    <defs></defs>
    <g id="WebApp" stroke="none" stroke-width="1" fill="none" fill-rule="evenodd" sketch:type="MSPage">
        <g id="Minimal---Header" sketch:type="MSArtboardGroup" transform="translate(-1123.000000, -15.000000)" fill="#FFFFFF" opacity="0.5">
            <g id="header" sketch:type="MSLayerGroup">
                <g id="menu" transform="translate(310.000000, 0.000000)" sketch:type="MSShapeGroup">
                    <g id="Help-Center" transform="translate(777.000000, 0.000000)">
                        <path d="M56.312,14.998 L40.687,14.998 C38.099,14.998 36,17.039 36,19.559 L36,29.439 C36,31.957 38.099,33.998 40.687,33.998 L56.312,33.998 C58.901,33.998 61,31.957 61,29.439 L61,19.559 C61,17.039 58.901,14.998 56.312,14.998 Z M56,16 L41,16 C38.791,16 37,17.79 37,20 L37,29 C37,31.209 38.791,33 41,33 L56,33 C58.209,33 60,31.209 60,29 L60,20 C60,17.79 58.209,16 56,16 Z M49,33.998 L57,39.999 L57,33.998 L49,33.998 Z M56,32.998 L49,33 L56,38 L56,32.998 Z M48.04,28.454 L49.384,28.454 L49.384,30.15 L48.04,30.15 L48.04,28.454 Z M45.448,20.702 C45.608,20.238 45.846,19.844 46.16,19.519 C46.475,19.193 46.856,18.94 47.304,18.758 C47.752,18.577 48.264,18.486 48.84,18.486 C49.288,18.486 49.707,18.553 50.096,18.686 C50.486,18.82 50.83,19.015 51.128,19.27 C51.427,19.525 51.662,19.836 51.832,20.198 C52.003,20.56 52.088,20.977 52.088,21.446 C52.088,22.044 51.957,22.551 51.696,22.966 C51.435,23.383 51.102,23.782 50.696,24.166 C50.366,24.497 50.102,24.756 49.904,24.941 C49.707,25.129 49.56,25.313 49.464,25.494 C49.368,25.676 49.304,25.897 49.272,26.158 C49.24,26.42 49.219,26.796 49.208,27.286 L48.2,27.286 C48.19,26.796 48.216,26.385 48.28,26.055 C48.344,25.724 48.448,25.425 48.592,25.158 C48.736,24.892 48.928,24.636 49.168,24.391 C49.408,24.145 49.699,23.867 50.04,23.559 C50.339,23.281 50.587,22.972 50.784,22.63 C50.981,22.289 51.08,21.91 51.08,21.494 C51.08,21.174 51.019,20.881 50.897,20.614 C50.773,20.348 50.608,20.121 50.4,19.934 C50.192,19.748 49.95,19.602 49.672,19.494 C49.395,19.388 49.102,19.334 48.793,19.334 C48.366,19.334 47.987,19.409 47.656,19.558 C47.326,19.707 47.054,19.913 46.84,20.175 C46.627,20.435 46.467,20.742 46.36,21.094 C46.253,21.446 46.206,21.83 46.216,22.246 L45.209,22.246 C45.209,21.681 45.289,21.166 45.448,20.702 L45.448,20.702 Z" id="icon"></path>
                    </g>
                </g>
            </g>
        </g>
    </g>
</svg>