<?xml version="1.0" encoding="UTF-8" standalone="no"?>
<svg width="25px" height="22px" viewBox="0 0 25 22" version="1.1" xmlns="http://www.w3.org/2000/svg" xmlns:xlink="http://www.w3.org/1999/xlink" xmlns:sketch="http://www.bohemiancoding.com/sketch/ns">
    <!-- Generator: Sketch 3.2.2 (9983) - http://www.bohemiancoding.com/sketch -->
    <title>icon</title>
    <desc>Created with Sketch.</desc>
    <defs></defs>
    <g id="WebApp" stroke="none" stroke-width="1" fill="none" fill-rule="evenodd" sketch:type="MSPage">
        <g id="Dashboard" sketch:type="MSArtboardGroup" transform="translate(-1205.000000, -17.000000)" fill="#FFFFFF">
            <g id="header" sketch:type="MSLayerGroup">
                <g id="menu" transform="translate(380.000000, 0.000000)" sketch:type="MSShapeGroup">
                    <g id="Invitations" transform="translate(744.000000, 0.000000)">
                        <g id="icon" transform="translate(80.000000, 16.000000)">
                            <path d="M13.0869233,10.7815644 L2.05032346,2.48924966 C2.01525569,2.57683241 1.996,2.67222183 1.996,2.772 L1.996,19.219 C1.996,19.647 2.347,19.992 2.781,19.992 L13,19.992 L13,20.932 L1.78,20.932 C1.349,20.932 1,20.588 1,20.165 L1,1.764 C1,1.71813047 1.00410387,1.67320165 1.01197114,1.62954891 L1.01197114,1.62954891 C0.942760403,1.45796051 0.977770021,1.25448143 1.117,1.116 C1.25570893,0.97729107 1.45962924,0.942583044 1.63139431,1.01187592 C1.67949759,1.00276903 1.72917874,0.998 1.78,0.998 L25.202,0.998 C25.2571156,0.998 25.3108903,1.00360905 25.3627658,1.01427717 C25.5357303,0.941808061 25.7427157,0.975715671 25.883,1.116 C26.0303896,1.26259716 26.0609851,1.4820336 25.9747867,1.65936872 C25.979543,1.69357903 25.982,1.72850791 25.982,1.764 L25.982,13.985 L24.986,13.985 L24.986,2.772 C24.986,2.67617562 24.9682401,2.58439907 24.9357706,2.49969784 L13.9130767,10.7815644 C13.8960789,10.806787 13.8763867,10.8307337 13.854,10.853 C13.7565067,10.9504933 13.6274181,10.9968848 13.5,10.9921744 C13.3725819,10.9968848 13.2434933,10.9504933 13.146,10.853 C13.1236133,10.8307337 13.1039211,10.806787 13.0869233,10.7815644 Z M13.5,9.91599387 L2.965424,2 L24.034576,2 L13.5,9.91599387 Z" id="Fill-1"></path>
                            <path d="M20.829,22.129 L17.839,19.141 C17.647,18.947 17.333,18.947 17.141,19.141 C16.947,19.333 16.947,19.647 17.141,19.839 L20.13,22.828 C20.323,23.022 20.636,23.022 20.829,22.828 C21.022,22.635 21.022,22.322 20.829,22.129" id="Fill-6"></path>
                            <path d="M25.828,17.141 C25.635,16.947 25.322,16.947 25.129,17.141 L20.14,22.129 C19.947,22.322 19.947,22.635 20.14,22.828 C20.333,23.022 20.646,23.022 20.839,22.828 L25.828,17.839 C26.021,17.647 26.021,17.333 25.828,17.141" id="Fill-7"></path>
                        </g>
                    </g>
                </g>
            </g>
        </g>
    </g>
</svg>