<?xml version="1.0" encoding="UTF-8" standalone="no"?>
<svg width="25px" height="23px" viewBox="0 0 25 23" version="1.1" xmlns="http://www.w3.org/2000/svg" xmlns:xlink="http://www.w3.org/1999/xlink" xmlns:sketch="http://www.bohemiancoding.com/sketch/ns">
    <!-- Generator: Sketch 3.2.1 (9977) - http://www.bohemiancoding.com/sketch -->
    <title>icon</title>
    <desc>Created with Sketch.</desc>
    <defs></defs>
    <g id="WebApp" stroke="none" stroke-width="1" fill="black" fill-rule="evenodd" sketch:type="MSPage">
        <g id="Minimal---Header" sketch:type="MSArtboardGroup" transform="translate(-832.000000, -16.000000)" fill="#FFFFFF" opacity="0.5">
            <g id="header" sketch:type="MSLayerGroup">
                <g id="menu" transform="translate(310.000000, 0.000000)" sketch:type="MSShapeGroup">
                    <g id="Jobtype" transform="translate(486.000000, 0.000000)">
                        <path d="M53,19.002 L57.875,19.002 C59.601,19.002 61,20.379 61,22.078 L61,35.922 C61,37.62 59.601,38.998 57.875,38.998 L39.125,38.998 C37.399,38.998 36,37.62 36,35.922 L36,22.078 C36,20.379 37.399,19.002 39.125,19.002 L44,19.002 L44,16.665 C44,16.297 44.335,15.998 44.75,15.998 L52.25,15.998 C52.664,15.998 53,16.297 53,16.665 L53,19.002 L53,19.002 Z M52.3421928,19.999 L58,19.999 C59.104,19.999 60,20.894 60,22 L60,35.999 C60,37.105 59.104,38 58,38 L39,38 C37.895,38 37,37.105 37,35.999 L37,22 C37,20.894 37.895,19.999 39,19.999 L44.6576138,19.999 C44.6878817,20.0023006 44.7187135,20.004 44.75,20.004 L52.25,20.004 C52.2812111,20.004 52.3119789,20.0023006 52.3421928,19.999 L52.3421928,19.999 Z M45,16.999 L52,16.999 L52,19 L45,19 L45,16.999 Z M37,25 L60,25 L60,26 L37,26 L37,25 Z M44,26 L53,26 L53,31 L44,31 L44,26 Z M45,26 L52,26 L52,30 L45,30 L45,26 Z" id="icon"></path>
                    </g>
                </g>
            </g>
        </g>
    </g>
</svg>