<?xml version="1.0" encoding="UTF-8" standalone="no"?>
<svg width="49px" height="49px" viewBox="0 0 49 49" version="1.1" xmlns="http://www.w3.org/2000/svg" xmlns:xlink="http://www.w3.org/1999/xlink" xmlns:sketch="http://www.bohemiancoding.com/sketch/ns">
    <!-- Generator: Sketch 3.2.1 (9977) - http://www.bohemiancoding.com/sketch -->
    <title>appraisal scope</title>
    <desc>Created with Sketch.</desc>
    <defs></defs>
    <g id="WebApp" stroke="none" stroke-width="1" fill="none" fill-rule="evenodd" sketch:type="MSPage">
        <g id="Minimal---Header" sketch:type="MSArtboardGroup" transform="translate(-11.000000, -11.000000)" fill="#FFFFFF">
            <g id="header" sketch:type="MSLayerGroup">
                <g id="logo" sketch:type="MSShapeGroup">
                    <g id="appraisal-scope" transform="translate(12.000000, 12.000000)">
                        <path d="M23.5,43 C34.2695526,43 43,34.2695526 43,23.5 C43,12.7304474 34.2695526,4 23.5,4 C12.7304474,4 4,12.7304474 4,23.5 C4,34.2695526 12.7304474,43 23.5,43 Z M23.5,36 C30.4035594,36 36,30.4035594 36,23.5 C36,16.5964406 30.4035594,11 23.5,11 C16.5964406,11 11,16.5964406 11,23.5 C11,30.4035594 16.5964406,36 23.5,36 Z M23.5,31 C27.6421356,31 31,27.6421356 31,23.5 C31,19.3578644 27.6421356,16 23.5,16 C19.3578644,16 16,19.3578644 16,23.5 C16,27.6421356 19.3578644,31 23.5,31 Z M23.5,29 C26.5375661,29 29,26.5375661 29,23.5 C29,20.4624339 26.5375661,18 23.5,18 C20.4624339,18 18,20.4624339 18,23.5 C18,26.5375661 20.4624339,29 23.5,29 Z" id="ovals"></path>
                        <path d="M23,23 L23,0.496031031 C23,0.230715707 23.2238576,0 23.5,0 C23.7680664,0 24,0.222080657 24,0.496031031 L24,23 L46.503969,23 C46.7692843,23 47,23.2238576 47,23.5 C47,23.7680664 46.7779193,24 46.503969,24 L24,24 L24,46.503969 C24,46.7692843 23.7761424,47 23.5,47 C23.2319336,47 23,46.7779193 23,46.503969 L23,24 L0.496031031,24 C0.230715707,24 1.37073262e-17,23.7761424 3.061617e-17,23.5 C4.70305033e-17,23.2319336 0.222080657,23 0.496031031,23 L23,23 Z" id="line" stroke="#17A1E5"></path>
                    </g>
                </g>
            </g>
        </g>
    </g>
</svg>