<?xml version="1.0" encoding="UTF-8" standalone="no"?>
<svg width="26px" height="26px" viewBox="0 0 21 23" version="1.1" xmlns="http://www.w3.org/2000/svg" xmlns:xlink="http://www.w3.org/1999/xlink" xmlns:sketch="http://www.bohemiancoding.com/sketch/ns">
   
   
   
    
    <g id="WebApp" stroke="none" stroke-width="" fill="none" fill-rule="evenodd" sketch:type="MSPage">
        <g id="Minimal---Header" sketch:type="MSArtboardGroup" transform="translate(-265.000000, -16.000000)" fill="#FFFFFF">
            <g id="header" sketch:type="MSLayerGroup">
                <g id="notification" transform="translate(240.000000, 0.000000)" sketch:type="MSShapeGroup">
                    <g id="icon" transform="translate(25.000000, 16.000000)">
                        <path d="M13.6622335,17.998 C13.6620749,17.9976666 13.6619162,17.9973333 13.6617575,17.997 L13.6617575,17.997 L19,17.997 L19,8.925 C19,4.769 15.883,1.366 11.918,1.029 C11.72,0.433 11.163,0 10.5,0 C9.837,0 9.28,0.433 9.082,1.029 C5.117,1.365 2,4.768 2,8.925 L2,17.997 L7.33824248,17.997 C7.33808375,17.9973333 7.33792508,17.9976666 7.33776646,17.998 L0,17.998 L0,18.994 L7.03630797,18.994 C7.01238392,19.1592117 7,19.3281597 7,19.5 C7,21.4329966 8.56700338,23 10.5,23 C12.4329966,23 14,21.4329966 14,19.5 C14,19.3281597 13.9876161,19.1592117 13.963692,18.994 L21,18.994 L21,17.998 L13.6622335,17.998 Z" id="overlay" fill-opacity="0.25"></path>
                        <path d="M13.9645556,19 C13.987914,19.1633015 14,19.3302393 14,19.5 C14,21.4329966 12.4329966,23 10.5,23 C8.56700338,23 7,21.4329966 7,19.5 C7,19.3302393 7.01208598,19.1633015 7.03544443,19 L8.05000906,19 C8.01721513,19.161555 8,19.3287671 8,19.5 C8,20.8807119 9.11928813,22 10.5,22 C11.8807119,22 13,20.8807119 13,19.5 C13,19.3287671 12.9827849,19.161555 12.9499909,19 L13.9645556,19 Z M3,9.502 C3,5.002 6,2.002 10.5,2.002 C15,2.002 18,5.002 18,9.502 L18,17.997 L19,17.997 L19,8.925 C19,4.769 15.883,1.366 11.918,1.029 C11.72,0.433 11.163,0 10.5,0 C9.837,0 9.28,0.433 9.082,1.029 C5.117,1.365 2,4.768 2,8.925 L2,17.997 L3,17.997 L3,9.502 Z M0,18.994 L21,18.994 L21,17.998 L0,17.998 L0,18.994 Z" id="shape"></path>
                    </g>
                </g>
            </g>
        </g>
    </g>
</svg>