<?xml version="1.0" encoding="UTF-8" standalone="no"?>
<svg width="25px" height="25px" viewBox="0 0 25 25" version="1.1" xmlns="http://www.w3.org/2000/svg" xmlns:xlink="http://www.w3.org/1999/xlink" xmlns:sketch="http://www.bohemiancoding.com/sketch/ns">
    <!-- Generator: Sketch 3.2.1 (9977) - http://www.bohemiancoding.com/sketch -->
    <title>icon</title>
    <desc>Created with Sketch.</desc>
    <defs></defs>
    <g id="WebApp" stroke="none" stroke-width="1" fill="none" fill-rule="evenodd" sketch:type="MSPage">
        <g id="Minimal---Header" sketch:type="MSArtboardGroup" transform="translate(-1026.000000, -15.000000)" fill="#FFFFFF" opacity="0.5">
            <g id="header" sketch:type="MSLayerGroup">
                <g id="menu" transform="translate(310.000000, 0.000000)" sketch:type="MSShapeGroup">
                    <g id="Settings" transform="translate(680.000000, 0.000000)">
                        <path d="M59.374,23.99 L57.315,23.99 C57.283,23.909 57.254,23.826 57.219,23.746 L58.671,22.294 C59.306,21.659 59.344,20.668 58.756,20.08 L55.921,17.244 C55.333,16.657 54.342,16.694 53.707,17.33 L52.26,18.777 C52.178,18.742 52.093,18.711 52.01,18.678 L52.01,16.625 C52.01,15.728 51.336,15 50.505,15 L46.495,15 C45.664,15 44.99,15.728 44.99,16.625 L44.99,18.678 C44.905,18.712 44.82,18.742 44.737,18.778 L43.291,17.333 C42.657,16.698 41.666,16.66 41.078,17.247 L38.242,20.083 C37.655,20.671 37.692,21.662 38.327,22.296 L39.779,23.748 C39.745,23.828 39.717,23.91 39.685,23.99 L37.625,23.99 C36.727,23.99 36,24.665 36,25.495 L36,29.506 C36,30.337 36.727,31.011 37.625,31.011 L39.686,31.011 C39.718,31.092 39.747,31.175 39.782,31.255 L38.328,32.709 C37.693,33.343 37.655,34.334 38.243,34.922 L41.079,37.758 C41.667,38.345 42.657,38.308 43.292,37.673 L44.742,36.222 C44.824,36.257 44.907,36.287 44.99,36.32 L44.99,38.375 C44.99,39.273 45.664,40 46.495,40 L50.505,40 C51.336,40 52.01,39.273 52.01,38.375 L52.01,36.32 C52.091,36.288 52.174,36.258 52.254,36.224 L53.707,37.676 C54.341,38.311 55.333,38.349 55.92,37.761 L58.755,34.925 C59.343,34.338 59.305,33.347 58.67,32.712 L57.216,31.258 C57.251,31.177 57.281,31.093 57.314,31.011 L59.374,31.011 C60.272,31.011 61,30.337 61,29.506 L61,25.495 C61,24.665 60.272,23.99 59.374,23.99 L59.374,23.99 Z M60,29.001 C60,29.554 59.552,30.001 59,30.001 L56.603,30.001 C56.446,30.51 56.23,30.991 55.985,31.455 L57.692,33.161 C58.082,33.552 58.082,34.186 57.692,34.575 L55.57,36.697 C55.18,37.088 54.547,37.088 54.156,36.697 L52.458,34.999 C51.993,35.246 51.511,35.465 51,35.623 L51,38.001 C51,38.553 50.552,39.001 50,39.001 L47,39.001 C46.448,39.001 46,38.553 46,38.001 L46,35.623 C45.488,35.465 45.004,35.246 44.539,34.998 L42.843,36.693 C42.453,37.084 41.819,37.084 41.429,36.693 L39.308,34.571 C38.917,34.181 38.917,33.548 39.308,33.157 L41.013,31.452 C40.769,30.989 40.553,30.509 40.397,30.001 L38,30.001 C37.448,30.001 37,29.554 37,29.001 L37,26.001 C37,25.448 37.448,25.001 38,25.001 L40.395,25.001 C40.551,24.493 40.767,24.013 41.01,23.55 L39.307,21.848 C38.916,21.458 38.916,20.824 39.307,20.434 L41.428,18.313 C41.819,17.922 42.452,17.922 42.843,18.313 L44.533,20.002 C45,19.753 45.485,19.533 46,19.374 L46,17.001 C46,16.448 46.448,16.001 47,16.001 L50,16.001 C50.552,16.001 51,16.448 51,17.001 L51,19.375 C51.513,19.533 51.997,19.753 52.464,20.001 L54.157,18.308 C54.547,17.918 55.181,17.918 55.571,18.308 L57.692,20.43 C58.083,20.82 58.083,21.453 57.692,21.844 L55.988,23.548 C56.232,24.011 56.448,24.492 56.604,25.001 L59,25.001 C59.552,25.001 60,25.448 60,26.001 L60,29.001 L60,29.001 Z M48.5,22.998 C46.007,22.998 43.986,25.013 43.986,27.498 C43.986,29.983 46.007,31.998 48.5,31.998 C50.993,31.998 53.014,29.983 53.014,27.498 C53.014,25.013 50.993,22.998 48.5,22.998 L48.5,22.998 Z M48.5,30.997 C46.563,30.997 44.994,29.431 44.994,27.497 C44.994,25.565 46.563,23.997 48.5,23.997 C50.436,23.997 52.006,25.565 52.006,27.497 C52.006,29.431 50.436,30.997 48.5,30.997 L48.5,30.997 Z" id="icon"></path>
                    </g>
                </g>
            </g>
        </g>
    </g>
</svg>