<?xml version="1.0" encoding="UTF-8" standalone="no"?>
<svg width="25px" height="25px" viewBox="0 0 25 25" version="1.1" xmlns="http://www.w3.org/2000/svg" xmlns:xlink="http://www.w3.org/1999/xlink" xmlns:sketch="http://www.bohemiancoding.com/sketch/ns">
    <!-- Generator: Sketch 3.2.1 (9977) - http://www.bohemiancoding.com/sketch -->
    <title>icon</title>
    <desc>Created with Sketch.</desc>
    <defs></defs>
    <g id="WebApp" stroke="none" stroke-width="1" fill="none" fill-rule="evenodd" sketch:type="MSPage">
        <g id="Minimal---Header" sketch:type="MSArtboardGroup" transform="translate(-735.000000, -15.000000)" fill="#FFFFFF" opacity="0.5">
            <g id="header" sketch:type="MSLayerGroup">
                <g id="menu" transform="translate(310.000000, 0.000000)" sketch:type="MSShapeGroup">
                    <g id="Staff" transform="translate(389.000000, 0.000000)">
                        <path d="M48.5,15 L44.594,23.594 L36,24.375 L42.485,30.916 L40.687,40 L48.473,35.254 L56.251,40 L54.506,30.91 L61,24.375 L52.406,23.594 L48.5,15 Z M48.5,17.416 L51.496,24.007 L51.736,24.537 L52.315,24.59 L58.792,25.179 L53.797,30.205 L53.424,30.58 L54.843,37.969 L48.994,34.4 L48.473,34.084 L47.952,34.4 L42.11,37.961 L43.467,31.11 L43.569,30.589 L43.195,30.213 L38.205,25.18 L44.685,24.59 L45.264,24.537 L45.504,24.007 L48.5,17.416 Z" id="icon"></path>
                    </g>
                </g>
            </g>
        </g>
    </g>
</svg>