<?xml version="1.0" encoding="UTF-8" standalone="no"?>
<svg width="22px" height="25px" viewBox="0 0 22 25" version="1.1" xmlns="http://www.w3.org/2000/svg" xmlns:xlink="http://www.w3.org/1999/xlink" xmlns:sketch="http://www.bohemiancoding.com/sketch/ns">
    <!-- Generator: Sketch 3.2.1 (9977) - http://www.bohemiancoding.com/sketch -->
    <title>icon</title>
    <desc>Created with Sketch.</desc>
    <defs></defs>
    <g id="WebApp" stroke="none" stroke-width="1" fill="none" fill-rule="evenodd" sketch:type="MSPage">
        <g id="Minimal---Header" sketch:type="MSArtboardGroup" transform="translate(-640.000000, -15.000000)" fill="#FFFFFF" opacity="0.5">
            <g id="header" sketch:type="MSLayerGroup">
                <g id="menu" transform="translate(310.000000, 0.000000)" sketch:type="MSShapeGroup">
                    <g id="Users" transform="translate(292.000000, 0.000000)">
                        <path d="M47.6382928,30.7865396 C44.7541917,29.8759309 42.9972928,26.1722526 42.9972928,22.87 C42.9972928,19.072 44.0002928,15.994 49.0112928,15.994 C54.0212928,15.994 55.0242928,19.072 55.0242928,22.87 C55.0242928,25.7713044 53.6681269,28.9824729 51.3832928,30.3370424 L51.3832928,30.869 L51.6135862,32.002 L51.8172928,32.002 C54.4932928,32.892 57.6072928,34.06 58.0662928,34.421 C58.8412928,35.173 59.3612928,37.225 58.6972928,38.572 C58.0112928,38.705 55.7192928,39.002 48.9822928,39.002 C42.2522928,39.002 39.9772928,38.705 39.3002928,38.574 C38.6312928,37.23 39.1552928,35.178 39.9092928,34.449 C40.4442928,34.053 44.0412928,32.88 47.1242928,32.002 L47.4094478,32.002 L47.6382928,30.869 L47.6382928,30.7865396 Z M46.2144245,31.2248065 C43.6118707,29.7089497 42.0182928,26.1877683 42.0182928,22.889 C42.0182928,18.531 43.2902928,15 49.0112928,15 C54.7312928,15 56.0032928,18.531 56.0032928,22.889 C56.0032928,26.0619933 54.5289177,29.4407626 52.1008041,31.0427951 C52.9630293,31.3309568 58.1037476,33.0665998 58.7602928,33.703 C59.9422928,34.848 60.5322928,37.71 59.3512928,39.428 C59.3512928,39.428 58.4312928,40.001 48.9822928,40.001 C39.5332928,40.001 38.6472928,39.428 38.6472928,39.428 C37.4572928,37.71 38.0562928,34.848 39.2472928,33.703 C39.8423482,33.1301896 44.375949,31.7627272 46.2144245,31.2248065 L46.2144245,31.2248065 Z" id="icon"></path>
                    </g>
                </g>
            </g>
        </g>
    </g>
</svg>